<svg fill="none" height="48" viewBox="0 0 47 48" width="47" xmlns="http://www.w3.org/2000/svg"><rect fill="#f15a2b" height="48" rx="13" width="47"/><g fill="#fff"><path d="m32.8184 31.9286c-.4502.0092-.8924-.1196-1.2672-.3691-.2789-.1823-.605-.2793-.9382-.2793-.3333 0-.6593.097-.9383.2793-.3786.2411-.8181.3691-1.267.3691-.4488 0-.8883-.128-1.2669-.3691-.279-.1825-.6051-.2796-.9385-.2796-.3333 0-.6594.0971-.9384.2796-.3786.2411-.8181.3691-1.267.3691-.4488 0-.8883-.128-1.267-.3691-.2787-.1823-.6046-.2795-.9377-.2795-.3332 0-.6591.0972-.9378.2795-.3433.2281-.7439.3549-1.1559.3658l-.0227-.6486c.3043-.0072.5999-.1035.85-.277.3786-.241.818-.369 1.2667-.369s.8881.128 1.2666.369c.279.1824.605.2795.9383.2795s.6593-.0971.9383-.2795c.3786-.2412.8183-.3693 1.2673-.3693.4489 0 .8886.1281 1.2673.3693.2789.1824.605.2795.9382.2795.3333 0 .6594-.0971.9383-.2795.3787-.2409.8182-.3689 1.267-.3689s.8883.128 1.267.3689c.2796.1828.6064.2802.9405.2802s.6609-.0974.9405-.2802c.3744-.2487.8158-.3773 1.2652-.3684v.6486c-.3346-.0091-.6634.0887-.9386.2793-.3757.2498-.8189.3787-1.27.3694z"/><path d="m15.1784 31.9285c-.45.0093-.8921-.1195-1.2668-.3691-.2751-.1908-.6039-.2887-.9386-.2796v-.6486c.4502-.0094.8924.1194 1.2672.369.2749.1908.6037.2888.9382.2796.3347.0092.6636-.0889.9386-.2799.374-.2495.8155-.3782 1.2649-.3687.4385-.0099.8698.113 1.2373.3525l-.3273.5598c-.2684-.1807-.5866-.2729-.91-.2637-.3333-.009-.6608.0887-.9347.2789-.3751.2503-.818.3794-1.2688.3698z"/><path d="m32.8194 29.6579c-.4505.0092-.8929-.1196-1.2681-.3691-.2792-.1824-.6055-.2796-.9391-.2796-.3335 0-.6599.0972-.9391.2796-.3785.241-.818.369-1.2668.369-.4487 0-.8882-.128-1.2668-.369-.2788-.1823-.6048-.2794-.9379-.2794-.3332 0-.6591.0971-.938.2794-.3785.2411-.818.3691-1.2668.3691s-.8883-.128-1.2668-.3691c-.2788-.1823-.6048-.2794-.9379-.2794-.3332 0-.6592.0971-.938.2794-.3746.2496-.8167.3784-1.2668.3691-.4501.0093-.8922-.1195-1.2668-.3691-.2749-.1907-.6035-.2887-.938-.2795-.3343-.0091-.6628.0888-.9376.2795-.374.2493-.8154.3781-1.2649.3691-.4501.0093-.8923-.1195-1.2671-.3691-.2754-.1911-.6048-.2891-.9399-.2795v-.6487c.4501-.0093.8922.1195 1.2668.3691.2752.1907.604.2887.9386.2796.3344.009.6629-.0889.9377-.2796.374-.2493.8154-.3781 1.2648-.3691.4504-.0096.8929.1193 1.2678.3691.275.1908.6037.2887.9383.2796.3345.0091.6633-.0888.9382-.2796.3786-.2411.8181-.3692 1.2669-.3692.4487 0 .8882.1281 1.2668.3692.2788.1824.6048.2795.9381.2795.3332 0 .6592-.0971.9381-.2795.3785-.2411.818-.3692 1.2668-.3692s.8883.1281 1.2668.3692c.2789.1824.6049.2795.9381.2795s.6592-.0971.9381-.2795c.3789-.241.8187-.369 1.2678-.369s.8889.128 1.2678.369c.2794.1823.6058.2794.9394.2794s.66-.0971.9394-.2794c.3751-.2494.8174-.3782 1.2678-.3691v.6487c-.3353-.0095-.6649.0884-.9406.2795-.3749.2493-.817.3781-1.2671.3691z"/><path d="m32.8184 27.388c-.4501.0092-.8923-.1196-1.2671-.3691-.2751-.1907-.604-.2886-.9386-.2795-.2456-.0085-.4895.0439-.7099.1524l-.2861-.5838c.3096-.1517.6513-.2266.996-.2183.4507-.0091.8934.12 1.2684.3701.2797.1828.6065.2801.9406.2801s.6609-.0973.9405-.2801c.3742-.2489.8155-.3777 1.2649-.3691v.6487c-.3346-.0092-.6634.0886-.9386.2792-.3757.2499-.8189.3788-1.2701.3694z"/><path d="m28.4044 27.3879c-.4495.0094-.8909-.1193-1.2649-.3688-.279-.1825-.6051-.2796-.9384-.2796-.3334 0-.6595.0971-.9385.2796-.3786.2411-.8181.3691-1.2669.3691-.4489 0-.8884-.128-1.267-.3691-.279-.1824-.605-.2795-.9383-.2795-.3332 0-.6593.0971-.9382.2795-.3746.2492-.8164.3779-1.2662.3688-.4501.0093-.8922-.1195-1.2668-.3691-.2751-.1907-.604-.2887-.9386-.2796-.3333-.009-.6608.0888-.9347.2789-.3747.2501-.8171.3791-1.2675.3698-.45.0093-.8921-.1195-1.2668-.3691-.2751-.1907-.6039-.2887-.9386-.2796v-.6486c.4502-.0094.8924.1194 1.2672.3691.2749.1907.6037.2887.9382.2795.3347.0092.6636-.0889.9386-.2799.374-.2495.8155-.3782 1.2649-.3687.45-.0093.8922.1195 1.2668.3691.275.1907.6037.2887.9383.2795.3346.0091.6634-.0888.9386-.2795.3786-.2411.8181-.3691 1.2669-.3691.4489 0 .8884.128 1.267.3691.279.1823.605.2794.9383.2794s.6593-.0971.9383-.2794c.3786-.2413.8183-.3694 1.2672-.3694.449 0 .8887.1281 1.2673.3694.2858.1921.6246.2898.9688.2792.025.0003.0501-.001.0749-.0039l.0863.6428c-.0651.0076-.1307.011-.1962.0101z"/><path d="m32.8194 25.1174c-.4505.0092-.8929-.1196-1.2681-.3691-.2792-.1825-.6055-.2796-.9391-.2796-.3335 0-.6599.0971-.9391.2796-.3785.241-.818.369-1.2668.369-.4487 0-.8882-.128-1.2668-.369-.2788-.1824-.6048-.2795-.9379-.2795-.3332 0-.6591.0971-.938.2795-.3785.241-.818.3691-1.2668.3691s-.8883-.1281-1.2668-.3691c-.2788-.1824-.6048-.2795-.9379-.2795-.3332 0-.6592.0971-.938.2795-.3746.2496-.8167.3784-1.2668.3691-.4501.0093-.8922-.1195-1.2668-.3691-.2749-.1908-.6035-.2887-.938-.2796-.3343-.0091-.6628.0889-.9376.2796-.374.2493-.8154.3781-1.2649.3691-.4501.0093-.8923-.1195-1.2671-.3691-.2754-.1911-.6048-.2891-.9399-.2796v-.6486c.4501-.0093.8922.1195 1.2668.3691.2752.1907.604.2886.9386.2795.3344.0091.6629-.0888.9377-.2795.374-.2494.8154-.3782 1.2648-.3691.4504-.0096.8929.1192 1.2678.3691.275.1907.6037.2887.9383.2795.3345.0092.6633-.0888.9382-.2795.3786-.2411.8181-.3692 1.2669-.3692.4487 0 .8882.1281 1.2668.3692.2788.1823.6048.2795.9381.2795.3332 0 .6592-.0972.9381-.2795.3785-.2411.818-.3692 1.2668-.3692s.8883.1281 1.2668.3692c.2789.1823.6049.2795.9381.2795s.6592-.0972.9381-.2795c.3789-.241.8187-.369 1.2678-.369s.8889.128 1.2678.369c.2794.1823.6058.2794.9394.2794s.66-.0971.9394-.2794c.3751-.2495.8174-.3783 1.2678-.3691v.6486c-.3353-.0095-.6649.0885-.9406.2796-.3749.2493-.817.3781-1.2671.3691z"/><path d="m28.1978 24.8423-.612-.2147c.1576-.4528.222-.9329.1893-1.4113-.0327-.4783-.1618-.9452-.3797-1.3723l-2.2277-4.3625c-.022-.0431-.0341-.0906-.0354-.1389-.0013-.0484.0083-.0964.0279-.1406.0197-.0442.049-.0834.0859-.1148.0368-.0314.0801-.0541.1269-.0666l4.4396-1.1838c.1447-.0378.2686-.1312.3447-.26.0762-.1287.0984-.2822.0619-.4273-.0365-.145-.1288-.2697-.2568-.347s-.2814-.101-.4267-.0658l-5.3734 1.2843c-.1149.0272-.222.0804-.313.1556s-.1635.1703-.2118.278-.0712.225-.0669.343c.0044.1179.0358.2333.0919.3372l1.5956 2.9643c.0405.0753.0496.1636.0253.2456s-.08.1511-.155.1922l-2.0594 1.1352-.313-.5683 1.7779-.9801-1.4419-2.6815c-.1032-.1914-.1609-.404-.1688-.6213s.0344-.4335.1234-.6319.2225-.3736.3901-.5122.3648-.2367.5764-.2869l5.3708-1.284c.3126-.079.6439-.0306.9208.1347.277.1652.477.4337.556.7463.079.3127.0306.6439-.1347.9209-.1652.277-.4337.4769-.7463.5559l-4.0522 1.08 2.0459 4.0048c.2576.5055.4103 1.0579.4489 1.624.0385.566-.0378 1.134-.2245 1.6698z"/><path d="m21.6223 21.7338-3.9413 2.1717.3129.5678 3.9413-2.1717z"/><path d="m31.1352 22.6849c-.4811 0-.9514-.1426-1.3514-.4099s-.7118-.6472-.8959-1.0916c-.1841-.4445-.2323-.9336-.1384-1.4054.0939-.4719.3255-.9053.6657-1.2455s.7736-.5718 1.2454-.6657c.4719-.0938.961-.0457 1.4054.1384.4445.1841.8244.4959 1.0917.8959s.4099.8703.4099 1.3514c-.0007.6449-.2572 1.2632-.7132 1.7192-.456.4561-1.0743.7125-1.7192.7132zm0-4.2162c-.3528 0-.6977.1046-.991.3006-.2934.196-.522.4746-.657.8006-.135.3259-.1703.6846-.1015 1.0306s.2387.6639.4882.9133c.2494.2495.5673.4194.9133.4882s.7047.0335 1.0306-.1015c.326-.135.6045-.3636.8005-.657.1961-.2933.3007-.6382.3007-.991-.0006-.4729-.1888-.9263-.5231-1.2607-.3344-.3344-.7878-.5225-1.2607-.5231z"/></g></svg>