<svg fill="none" height="48" viewBox="0 0 47 48" width="47" xmlns="http://www.w3.org/2000/svg"><rect fill="#f0bb1f" height="48" rx="13" width="47"/><path d="m13.5446 17.4755c-.2966 0-.5392-.2427-.5446-.5392v-3.3917c0-.302.2426-.5446.5446-.5446h3.3917c.2965 0 .5392.2426.5392.5446v1.1809h13.049v-1.1809c0-.2966.2427-.5392.5392-.5446h3.3917c.2966 0 .5392.2426.5446.5446v3.3917c0 .2965-.2426.5392-.5446.5392h-1.1809v13.049h1.1809c.2966 0 .5392.2427.5446.5392v3.3917c0 .2966-.2426.5392-.5446.5446h-3.3917c-.2965 0-.5392-.2426-.5392-.5446v-1.1809h-13.049v1.1809c0 .2966-.2427.5392-.5392.5446h-3.3917c-.2966 0-.5392-.2426-.5446-.5446v-3.3917c0-.2965.2426-.5392.5446-.5392h1.1809v-13.049zm20.377-1.0784v-2.3187h-2.3187v2.3187zm-2.3187 17.5245h2.3187v-2.3187h-2.3187zm-14.1274-2.8579v1.1324h13.049v-1.1324c0-.2965.2427-.5392.5392-.5392h1.1324v-13.049h-1.1324c-.2965 0-.5392-.2427-.5392-.5392v-1.1324h-13.049v1.1324c0 .2965-.2427.5392-.5392.5392h-1.1324v13.049h1.1324c.2965 0 .5392.2427.5392.5392zm-3.3971.5392v2.3187h2.3187v-2.3187zm2.3187-15.2058v-2.3187h-2.3187v2.3187z" fill="#fff"/></svg>