<svg fill="none" height="48" viewBox="0 0 47 48" width="47" xmlns="http://www.w3.org/2000/svg"><rect fill="#006380" height="48" rx="13" width="47"/><g fill="#fff"><path d="m16.5 26.125c-.2967 0-.5867.088-.8334.2528-.2466.1648-.4389.3991-.5524.6732-.1136.2741-.1433.5757-.0854.8666.0579.291.2008.5583.4105.7681.2098.2097.4771.3526.7681.4105.2909.0579.5925.0282.8666-.0854.2741-.1135.5084-.3058.6732-.5524.1648-.2467.2528-.5367.2528-.8334 0-.3978-.158-.7794-.4393-1.0607s-.6629-.4393-1.0607-.4393zm0 2.25c-.1483 0-.2933-.044-.4167-.1264-.1233-.0824-.2194-.1995-.2762-.3366-.0568-.137-.0716-.2878-.0427-.4333.029-.1455.1004-.2791.2053-.384s.2385-.1763.384-.2053c.1455-.0289.2963-.0141.4333.0427.1371.0568.2542.1529.3366.2762.0824.1234.1264.2684.1264.4167 0 .1989-.079.3897-.2197.5303-.1406.1407-.3314.2197-.5303.2197z"/><path d="m31.5 26.125c-.2967 0-.5867.088-.8334.2528-.2466.1648-.4389.3991-.5524.6732-.1136.2741-.1433.5757-.0854.8666.0579.291.2008.5583.4105.7681.2098.2097.4771.3526.7681.4105.2909.0579.5925.0282.8666-.0854.2741-.1135.5084-.3058.6732-.5524.1648-.2467.2528-.5367.2528-.8334 0-.3978-.158-.7794-.4393-1.0607-.2814-.2813-.6629-.4393-1.0607-.4393zm0 2.25c-.1483 0-.2933-.044-.4167-.1264-.1233-.0824-.2194-.1995-.2762-.3366-.0568-.137-.0716-.2878-.0427-.4333s.1004-.2791.2053-.384.2385-.1763.384-.2053c.1455-.0289.2963-.0141.4333.0427.1371.0568.2542.1529.3366.2762.0824.1234.1264.2684.1264.4167 0 .1989-.079.3897-.2197.5303-.1406.1407-.3314.2197-.5303.2197z"/><path d="m20.625 28h6.75v.75h-6.75z"/><path d="m20.625 26.5h6.75v.75h-6.75z"/><path d="m22.875 20.875h2.25v.75h-2.25z"/><path d="m35.25 24.25v-.75c-.0009-.2981-.1197-.5837-.3305-.7945s-.4964-.3296-.7945-.3305h-1.485l-.7762-2.7225-.2326-.9262c-.061-.2433-.2015-.4591-.3992-.6133-.1977-.1543-.4413-.238-.692-.238h-3.165v-1.5c-.0006-.1987-.0798-.3892-.2203-.5297s-.331-.2197-.5297-.2203h-5.25c-.1987.0006-.3892.0798-.5297.2203s-.2197.331-.2203.5297v1.5h-3.165c-.2507 0-.4943.0837-.692.238-.1977.1542-.3382.37-.3993.6133l-.2287.9224-.78 2.7263h-1.485c-.2981.0009-.5837.1197-.7945.3305s-.3296.4964-.3305.7945v.75c.0006.19.0494.3767.1419.5426.0925.166.2256.3057.3869.4061-.339.3484-.5288.8152-.5288 1.3013v4.5c.0005.1573.0342.3128.0988.4562s.1587.2717.2762.3763v1.4175c.0009.2981.1197.5837.3305.7945s.4964.3296.7945.3305h3c.2981-.0009.5837-.1197.7945-.3305s.3296-.4964.3305-.7945v-1.125h11.25v1.125c.0009.2981.1197.5837.3305.7945s.4964.3296.7945.3305h3c.2981-.0009.5837-.1197.7945-.3305s.3296-.4964.3305-.7945v-1.4175c.1175-.1046.2116-.2329.2762-.3763s.0983-.2989.0988-.4562v-4.5c0-.4861-.1898-.9529-.5287-1.3013.1612-.1004.2943-.2401.3868-.4061.0925-.1659.1413-.3526.1419-.5426zm-13.875-7.875h5.25v1.5h-5.25zm-4.2787 2.535c.02-.0813.0668-.1535.1327-.2052.0659-.0516.1473-.0797.231-.0798h13.08c.0837.0001.1651.0282.231.0798.0659.0517.1126.1239.1327.2052l.1163.465h-14.04zm-.3151 1.215h14.4376l1.2824 4.5h-10.785c-.0881-.5241-.3591-.9999-.7648-1.3431-.4058-.3432-.92-.5315-1.4514-.5315s-1.0456.1883-1.4514.5315c-.4057.3432-.6767.819-.7648 1.3431h-1.7851zm4.1663 4.5h-2.895c.0819-.3218.2686-.6071.5308-.8109.2621-.2038.5847-.3144.9167-.3144s.6546.1106.9167.3144c.2622.2038.4489.4891.5308.8109zm-7.4475-1.125c0-.0995.0395-.1948.1098-.2652.0704-.0703.1657-.1098.2652-.1098h1.2713l-.4275 1.5h-.8438c-.0995 0-.1948-.0395-.2652-.1098-.0703-.0704-.1098-.1657-.1098-.2652zm4.125 9.75c0 .0995-.0395.1948-.1098.2652-.0704.0703-.1657.1098-.2652.1098h-3c-.0995 0-.1948-.0395-.2652-.1098-.0703-.0704-.1098-.1657-.1098-.2652v-1.125h3.75zm16.5 0c0 .0995-.0395.1948-.1098.2652-.0704.0703-.1657.1098-.2652.1098h-3c-.0995 0-.1948-.0395-.2652-.1098-.0703-.0704-.1098-.1657-.1098-.2652v-1.125h3.75zm.375-2.25c0 .0995-.0395.1948-.1098.2652-.0704.0703-.1657.1098-.2652.1098h-20.25c-.0995 0-.1948-.0395-.2652-.1098-.0703-.0704-.1098-.1657-.1098-.2652v-.375h21zm0-1.125h-21v-3.375c.0009-.2981.1197-.5837.3305-.7945s.4964-.3296.7945-.3305h18.75c.2981.0009.5837.1197.7945.3305s.3296.4964.3305.7945zm0-5.625c0 .0995-.0395.1948-.1098.2652-.0704.0703-.1657.1098-.2652.1098h-.8438l-.4274-1.5h1.2712c.0995 0 .1948.0395.2652.1098.0703.0704.1098.1657.1098.2652z"/></g></svg>