<svg fill="none" height="35" viewBox="0 0 116 35" width="116" xmlns="http://www.w3.org/2000/svg"><path d="m74.9999 29 9.5 3 8-8 10.0001 7 10.5-2-4.5-14.5-16.0001 5-9-5-9.5 1.5z" fill="#f1a501"/><g fill="#000"><path d="m.919922 24.064v-2.162l6.117998-1.104v2.99c.03067 1.6253.44467 2.852 1.242 3.68.828.7973 1.91668 1.196 3.26598 1.196 1.3187 0 2.3614-.4293 3.128-1.288.7974-.8587 1.196-2.0087 1.196-3.45v-22.54002h6.348v22.54002c0 3.0053-.9966 5.5507-2.99 7.636-1.9933 2.0853-4.5386 3.128-7.636 3.128-3.21998 0-5.81131-.966-7.77398-2.898-1.932-1.9627-2.897998-4.5387-2.897998-7.728z"/><path d="m23.6766 27.836c0-1.932.6287-3.4807 1.886-4.646 1.2574-1.1653 2.8827-1.9013 4.876-2.208l5.566-.828c1.1347-.1533 1.702-.69 1.702-1.61 0-.8587-.3373-1.564-1.012-2.116-.644-.552-1.5793-.828-2.806-.828-1.288 0-2.3153.3527-3.082 1.058-.736.7053-1.15 1.5793-1.242 2.622l-5.428-1.15c.2147-1.9627 1.1807-3.6953 2.898-5.198 1.7174-1.5027 3.9867-2.254 6.808-2.254 3.3734 0 5.8574.8127 7.452 2.438 1.5947 1.5947 2.392 3.6493 2.392 6.164v11.132c0 1.3493.092 2.5453.276 3.588h-5.612c-.1533-.6747-.23-1.5793-.23-2.714-1.4413 2.2387-3.6646 3.358-6.67 3.358-2.3306 0-4.2166-.6747-5.658-2.024-1.4106-1.3493-2.116-2.944-2.116-4.784zm9.062 2.254c1.4414 0 2.622-.3987 3.542-1.196.9507-.828 1.426-2.1773 1.426-4.048v-1.012l-5.106.782c-1.8706.276-2.806 1.2267-2.806 2.852 0 .736.2607 1.3647.782 1.886.5214.4907 1.242.736 2.162.736z"/><path d="m67.6577.695984v29.210016c0 1.5027.0613 2.8673.184 4.094h-5.842c-.1534-.7667-.23-1.6407-.23-2.622-.5214.9507-1.3494 1.7173-2.484 2.3-1.104.5827-2.392.874-3.864.874-3.22 0-5.8727-1.1193-7.958-3.358-2.0547-2.2693-3.082-5.1213-3.082-8.556 0-3.3427 1.012-6.1487 3.036-8.418 2.0546-2.2693 4.6613-3.404 7.82-3.404 3.2506 0 5.382.9353 6.394 2.806v-12.926016zm-17.112 21.942016c0 1.9933.5213 3.5727 1.564 4.738 1.0426 1.1347 2.392 1.702 4.048 1.702 1.6253 0 2.9593-.5827 4.002-1.748 1.0426-1.1653 1.564-2.7447 1.564-4.738 0-1.9627-.5214-3.496-1.564-4.6-1.0427-1.1347-2.3767-1.702-4.002-1.702-1.6254 0-2.9747.5673-4.048 1.702-1.0427 1.1347-1.564 2.6833-1.564 4.646z"/><path d="m76.6866 27.422c1.1347 1.1347 2.4993 1.702 4.094 1.702s2.944-.5673 4.048-1.702c1.1347-1.1347 1.702-2.714 1.702-4.738s-.5673-3.6033-1.702-4.738c-1.104-1.1347-2.4533-1.702-4.048-1.702s-2.9593.5673-4.094 1.702c-1.104 1.1347-1.656 2.714-1.656 4.738s.552 3.6033 1.656 4.738zm-4.416-13.34c2.2693-2.2693 5.106-3.404 8.51-3.404s6.2253 1.1347 8.464 3.404c2.2693 2.2693 3.404 5.1367 3.404 8.602s-1.1347 6.3327-3.404 8.602c-2.2387 2.2693-5.06 3.404-8.464 3.404s-6.2407-1.1347-8.51-3.404c-2.2387-2.2693-3.358-5.1367-3.358-8.602s1.1193-6.3327 3.358-8.602z"/><path d="m99.8699 27.422c1.1351 1.1347 2.4991 1.702 4.0941 1.702s2.944-.5673 4.048-1.702c1.135-1.1347 1.702-2.714 1.702-4.738s-.567-3.6033-1.702-4.738c-1.104-1.1347-2.453-1.702-4.048-1.702s-2.959.5673-4.0941 1.702c-1.104 1.1347-1.656 2.714-1.656 4.738s.552 3.6033 1.656 4.738zm-4.416-13.34c2.2693-2.2693 5.1061-3.404 8.5101-3.404s6.225 1.1347 8.464 3.404c2.269 2.2693 3.404 5.1367 3.404 8.602s-1.135 6.3327-3.404 8.602c-2.239 2.2693-5.06 3.404-8.464 3.404s-6.2408-1.1347-8.5101-3.404c-2.2387-2.2693-3.358-5.1367-3.358-8.602s1.1193-6.3327 3.358-8.602z"/></g></svg>