<svg fill="none" height="70" viewBox="0 0 70 70" width="70" xmlns="http://www.w3.org/2000/svg" xmlns:xlink="http://www.w3.org/1999/xlink"><linearGradient id="a"><stop offset="0" stop-color="#747def"/><stop offset="1" stop-color="#5e3be1"/></linearGradient><linearGradient id="b" gradientUnits="userSpaceOnUse" x1="49.6467" x2="19.564" xlink:href="#a" y1="1.96393" y2="77.7643"/><linearGradient id="c" gradientUnits="userSpaceOnUse" x1="32.4077" x2="33.5452" xlink:href="#a" y1="34.5441" y2="36.8251"/><linearGradient id="d" gradientUnits="userSpaceOnUse" x1="32.9029" x2="33.507" xlink:href="#a" y1="35.4017" y2="36.5259"/><circle cx="35" cy="35" fill="url(#b)" r="35"/><path d="m52.6105 23.9904c.6913 1.1974.5987 2.6232-.2428 3.7206l-18.4738 24.1072c-.7618.9941-2.0163 1.5009-3.2991 1.2547-1.2561-.2416-2.2521-1.1573-2.5978-2.3888l-2.7335-9.7286-.2846-1.012-.734-.7525-7.0585-7.2315c-.8937-.9151-1.1887-2.2355-.7698-3.4441.4145-1.1948 1.4542-2.0618 2.7361-2.2298l30.1143-3.9452c1.3711-.18 2.6522.4526 3.3435 1.65z" fill="#fff"/><path d="m25.2636 40.9555 2.7334 9.7286c.3457 1.2316 1.3416 2.1472 2.5978 2.3888 1.2828.2463 2.5373-.2605 3.2991-1.2547l18.4738-24.1071c.8415-1.0974.9341-2.5232.2428-3.7206l-27.6316 15.9531z" fill="#fff"/><path d="m36.2231 33.4515c.2812.487.1148 1.1101-.3728 1.3916l-10.5867 6.1122-.2847-1.0119-.734-.7525 10.5867-6.1122c.4876-.2814 1.1104-.1141 1.3915.3728z" fill="url(#c)"/><path d="m25.2637 40.9554 10.5867-6.1122c.4876-.2815.6541-.9045.3729-1.3915l-11.2443 6.4918z" fill="url(#d)"/></svg>