<svg fill="none" height="139" viewBox="0 0 152 139" width="152" xmlns="http://www.w3.org/2000/svg"><path d="m87.6534 78.6543c-1.2258.2745-2.4197.7831-3.5075 1.4936-2.8342 1.806-4.4832 4.3839-3.6828 5.7574.8003 1.3736 3.7467 1.0223 6.5809-.7837 1.1025-.6854 2.082-1.5614 2.878-2.5739.3694-.4892.4357-1.0987.1693-1.5543l-1.0397-1.7844c-.2645-.4571-.8133-.6744-1.3982-.5547z" fill="#d5d6db"/><path d="m80.5362 54.2961c-.8888.1992-1.7546.5681-2.5435 1.0834-2.0546 1.3092-3.251 3.1784-2.6711 4.1735.5799.9952 2.7171.7402 4.7715-.5688.7994-.4973 1.5096-1.1328 2.0869-1.867.2675-.3546.3155-.7962.1224-1.1265l-.7529-1.2921c-.1915-.3313-.5891-.4893-1.0133-.4025z" fill="#d5d6db"/><path d="m68.973 55.3161c-.1979-.0221-.4089.0306-.5918.1475l-4.8262 3.0755c-.4037.2565-.5652.7504-.3604 1.1034.0468.0809.1109.1499.1887.2032l11.895 8.1981 16.0927-10.2553z" fill="#029bc5"/><path d="m119.846 54.1569-43.794 27.5698-25.91 10.3102-13.2138 2.6266-1.4537-2.47 72.9985-45.0712c2.176-1.349 4.599-2.177 7.026-2.4 1.062-.0919 2.111-.0566 3.123.1048.897.136 1.748.3983 2.527.7792.87.4316 2.526.4813 3.062 1.3411.002-.0014 1.267 3.9461-4.365 7.2095z" fill="#e1e6e9"/><path d="m76.6326 78.0789-18.9458 30.2031c-.2367.424-.0962.899.3134 1.061.2513.099.559.06.8174-.104l4.8224-3.06c.9275-.588 1.7488-1.336 2.4131-2.196l36.7419-43.1968z" fill="#029bc5"/><path d="m28.8244 77.0704c-.316-.108-.6921-.052-1.0096.1502l-3.9863 2.5388c-.5431.3456-.7596 1.0102-.4836 1.4845.0526.0902.1209.1696.2028.2349l11.1686 8.9448 11.7428-7.3347z" fill="#029bc5"/><path d="m38.4599 92.0361-6.0112 8.4189c-.0882.121-.0674.273.0462.339.082.048.1939.039.2848-.022l3.7253-2.3605c.029-.0183.0552-.0413.0768-.0675l8.7835-10.6796z" fill="#029bc5"/><path d="m117.904 45.1901c-1.042-.1673-2.123-.203-3.218-.1068-1.065 1.4899-1.746 3.1635-1.975 4.8541-.017.3396.257.584.612.5459.11-.0119.22-.0506.318-.1127l6.865-4.3714c-.802-.3958-1.679-.6682-2.602-.8091z" fill="#029bc5"/><path d="m102.943 53.2286 4.482-2.8307 4.175 7.1009-4.482 2.8307z" fill="#d5d6db"/><g fill="#3a556a"><path d="m100.122 56.037c-.5399.3422-.7558.9998-.4816 1.4688l.4446.7598c.292.457.959.5374 1.49.1794.505-.3409.708-.9605.465-1.4181l-.444-.7598c-.274-.4686-.934-.5717-1.474-.2301z"/><path d="m96.0936 58.539c-.5401.3421-.756.9998-.4818 1.4688l.4443.7598c.2922.457.9593.5374 1.4902.1794.5052-.3409.7086-.9606.4651-1.4181l-.4442-.7598c-.2742-.4685-.9337-.5716-1.4736-.2301z"/><path d="m92.0637 61.0416c-.5396.3425-.7547.9994-.4807 1.468l.4443.7597c.2922.4571.9593.5374 1.4902.1795.5051-.341.7086-.9606.4651-1.4181l-.4442-.7598c-.2742-.4689-.9344-.5716-1.4747-.2293z"/><path d="m88.035 63.5434c-.5396.3426-.7547.9994-.4807 1.468l.4443.7598c.2922.457.9593.5374 1.4902.1794.5052-.3409.7086-.9605.4651-1.4181l-.4442-.7598c-.2745-.4688-.9346-.5715-1.4747-.2293z"/><path d="m84.0069 66.0453c-.5399.3427-.7551.9999-.481 1.4687l.4445.7601c.2741.4686.9339.5712 1.4739.2292s.7556-.9991.4815-1.4677l-.4445-.7601c-.2733-.469-.933-.5723-1.4733-.2309-.0004.0003-.0007.0004-.0011.0007z"/><path d="m79.9782 68.5471c-.5399.3428-.7551.9999-.481 1.4687l.4446.7601c.274.4686.9339.5712 1.4738.2292.54-.342.7556-.9991.4815-1.4676l-.4445-.7602c-.2733-.469-.933-.5723-1.4733-.2309-.0004.0003-.0009.0006-.0011.0007z"/><path d="m75.9494 71.049c-.5399.3427-.7551.9999-.481 1.4686l.4445.7601c.2747.4682.9349.5697 1.4743.2273.5385-.3419.7536-.9976.4808-1.4656l-.4445-.7601c-.2739-.4689-.9337-.572-1.4741-.2303z"/><path d="m71.9207 73.5509c-.5399.3428-.7551.9999-.481 1.4687l.4445.7601c.2748.4682.9349.5698 1.4743.2273.5385-.3419.7536-.9976.4809-1.4656l-.4446-.7601c-.2739-.469-.9337-.5721-1.4741-.2304z"/><path d="m67.8921 76.0528c-.5398.3427-.7551.9998-.4809 1.4686l.4445.7601c.2747.4681.9349.5697 1.4743.2273.5384-.3419.7536-.9976.4808-1.4656l-.4445-.7601c-.2742-.4688-.934-.5719-1.4742-.2303z"/><path d="m63.8622 78.5552c-.54.342-.7555.9991-.4815 1.4677l.0006.001.4445.7601c.2747.4681.9349.5697 1.4743.2273.5384-.3419.7535-.9976.4808-1.4656l-.4445-.7602c-.2739-.4689-.9338-.5721-1.4742-.2303z"/><path d="m59.8346 81.0564c-.5399.342-.7555.9991-.4815 1.4677l.0006.001.4445.7601c.2747.4681.9349.5697 1.4743.2273.5385-.3419.7536-.9976.4808-1.4656l-.4445-.7601c-.2741-.4688-.934-.572-1.4742-.2304z"/></g></svg>