<svg fill="none" height="254" viewBox="0 0 98 254" width="98" xmlns="http://www.w3.org/2000/svg"><path d="m8.95816 14.2344c7.02684-8.51645 24.79454-21.61044 39.65124-5.85507s-5.1864 45.24347-17.0651 58.01807c-5.8557 3.5485-18.0689 9.581-20.0766 5.3228-2.50954-5.3228-4.01529-16.5006 16.5632-26.0815 13.2171-5.6777 41.7593-11.7101 50.1915 9.5809 3.848 9.2261 4.5172 30.6591-23.59 42.5821l-35.134 15.4363m0 0c-13.38442.536-32.6245-5.846-2.5096-35.6628 9.5364-4.6131 32.6245-13.9456 48.6858-14.3714 9.2017 1.9516 26.9026 11.6036 24.0919 34.5979.3346 4.6133-5.9226 16.0743-33.6283 25.0173-6.3576 1.419-20.5785 4.364-26.6015 4.79l-21.58231 3.194zm0 0c8.7824-2.484 29.5101-6.707 42.1608-3.726 15.8135 3.726 22.0843.532 34.6321 21.291 2.175 10.645.6023 32.469-23.088 34.598-23.6904 2.129-38.9821-1.952-43.6666-4.258v-19.695m0 0c17.2324 1.597 54.2068.426 64.2451-17.033 4.8518-12.419 5.2199-37.7911-32.1226-39.9202-9.0344.3548-28.3079 1.4904-33.1263 3.1936l1.0038 37.7916c17.567 1.597 54.5079 9.155 61.7355 26.614 3.848 10.113 5.1195 31.404-20.5785 35.662-9.5364.355-31.1187-.958-41.157-9.048m0-37.26v37.26m0-37.26c10.8748 2.662 34.8329 10.007 43.6666 18.098 10.7075 8.871 26.4007 30.872 3.5134 47.904-7.1942 2.662-26.3004 4.791-45.1724-7.984m-2.0076-20.758 2.0076 20.758m-2.0076-20.758c12.046 8.516 36.6398 29.168 38.6474 43.646.8366 8.871-1.4053 27.359-17.0651 30.34-4.0153.71-13.9532.639-21.5823-5.323l2.0076-47.905" stroke="#84829a"/></svg>